<svg xmlns="http://www.w3.org/2000/svg" viewBox="0 0 50 49.98"><defs><style>.cls-1{fill: currentColor}</style></defs><g id="Ebene_2" data-name="Ebene 2"><g id="Ebene_1-2" data-name="Ebene 1"><path class="cls-1" d="M.75,21.86A3.67,3.67,0,0,1,0,19.22a3.54,3.54,0,0,1,1.32-2.44A3.29,3.29,0,0,1,4,16a3.75,3.75,0,0,1,1.36-2.45A3.37,3.37,0,0,1,8,12.77a3.76,3.76,0,0,1,2.49,1.37,3.49,3.49,0,0,1,0,4.4l1.66,2.05L13,20a.68.68,0,0,1,.68-.2l1.08.2a.86.86,0,0,1,.63,1.17.85.85,0,0,1-1.12.69,3.5,3.5,0,0,0-.49-.2L7.49,26.74a8.84,8.84,0,0,0,.59,3.12.85.85,0,0,1-.49,1.27H7.2a.76.76,0,0,1-.78-.58,9.92,9.92,0,0,1-.78-4.3A.83.83,0,0,1,6,25.57L6.71,25,5.05,22.93a3.39,3.39,0,0,1-2.29.19A3.52,3.52,0,0,1,.75,21.86Zm4-.88a.78.78,0,0,1,.58-.2.86.86,0,0,1,.69.39l2.15,2.64,2.53-2L8.66,19.12a1,1,0,0,1-.24-.73,1.15,1.15,0,0,1,.34-.64,1.82,1.82,0,0,0,.68-1.22,1.48,1.48,0,0,0-.39-1.27,1.93,1.93,0,0,0-1.22-.63A1.6,1.6,0,0,0,6.52,15,1.63,1.63,0,0,0,5.93,17a.81.81,0,0,1-.25,1.08,1,1,0,0,1-1.12.09,1.48,1.48,0,0,0-2,.1,1.72,1.72,0,0,0-.29,2.49,2,2,0,0,0,1.22.64A1.68,1.68,0,0,0,4.76,21Zm41,12.2q-.09,3.33-3.71,7.33a24.83,24.83,0,0,1-8.2,6.15V49c0,.65-.29,1-.88,1H16.09a.86.86,0,0,1-1-1V46.66A25.1,25.1,0,0,1,7,40.51c-2.41-2.67-3.64-5.11-3.71-7.33a.85.85,0,0,1,.54-.83.92.92,0,0,1,1,.15c.85.72,3.19,1.3,7,1.76a104.25,104.25,0,0,0,12.64.68,104.42,104.42,0,0,0,12.65-.68c3.84-.46,6.18-1,7-1.76a.94.94,0,0,1,1-.15A.86.86,0,0,1,45.77,33.18Zm-2.24,1.66q-5.37,2-19,2t-19-2a9,9,0,0,0,1.37,2.64H7a.89.89,0,0,0,.78.49,1.15,1.15,0,0,0,1-.59A.85.85,0,0,1,10,37a.76.76,0,0,1,.29,1.22,2.64,2.64,0,0,1-1.66,1.37A18.45,18.45,0,0,0,11,41.78a.83.83,0,0,1,1.17-.2.81.81,0,0,1,.29,1.27V43a25.85,25.85,0,0,0,3.81,2.15h16.5a18.49,18.49,0,0,0,3.62-2.05.28.28,0,0,1-.1-.2.92.92,0,0,1,1.56-1V42a20.85,20.85,0,0,0,2.54-2.34,2.64,2.64,0,0,1-1.66-1.37A.76.76,0,0,1,39.08,37c.56-.29,1-.18,1.22.34a1.16,1.16,0,0,0,1,.59.94.94,0,0,0,.68-.29A11.26,11.26,0,0,0,43.53,34.84ZM9.15,11.31a.77.77,0,0,1-.39-1.17l.49-1.37a15.44,15.44,0,0,1,5.22-5.86A17,17,0,0,1,22.14.18a17.9,17.9,0,0,1,8.3.78,15.53,15.53,0,0,1,7.13,4.59.79.79,0,0,1-.1,1.27.8.8,0,0,1-1.27-.1,14.75,14.75,0,0,0-6.15-3.91A17.28,17.28,0,0,0,22.34,2a15.94,15.94,0,0,0-6.79,2.44,13.72,13.72,0,0,0-4.64,5.08,11.91,11.91,0,0,0-.49,1.37,1,1,0,0,1-.88.49A.94.94,0,0,1,9.15,11.31Zm1.66,17.38a1,1,0,0,1-.58.2,1.06,1.06,0,0,1-.79-.3l-.09-.19a1.07,1.07,0,0,1-.2-.59.77.77,0,0,1,.29-.68.89.89,0,0,1,1.37.1l.1.19a.81.81,0,0,1,.19.59A.9.9,0,0,1,10.81,28.69Zm-.1,2.93-.19-.1a1,1,0,0,1-.2-.58.91.91,0,0,1,.39-.78.85.85,0,0,1,1.27.19l.1.2a.56.56,0,0,1,.29.49.94.94,0,0,1-.39.78,1,1,0,0,1-.58.19A.86.86,0,0,1,10.71,31.62ZM16.48,39a2.81,2.81,0,0,1-2.54,1.47A2.79,2.79,0,0,1,11.4,39a.81.81,0,0,1,.29-1.27.82.82,0,0,1,1.27.3,1.14,1.14,0,0,0,1,.68,1.13,1.13,0,0,0,1-.68.82.82,0,0,1,1.27-.3A.82.82,0,0,1,16.48,39Zm-3.42-9.86a.91.91,0,0,1-.78-.39l-.1-.2A.78.78,0,0,1,12,28a1,1,0,0,1,.3-.69.86.86,0,0,1,1.36.2l.1.1a1,1,0,0,1,.2.58,1,1,0,0,1-.3.78A1,1,0,0,1,13.06,29.18Zm.29,4.3-.1-.2a.78.78,0,0,1-.19-.58.86.86,0,0,1,.39-.69.79.79,0,0,1,1.27.1l.1.19a1.08,1.08,0,0,1,.19.59.94.94,0,0,1-.29.68,1,1,0,0,1-.59.2A1.09,1.09,0,0,1,13.35,33.48Zm6,8.1a.81.81,0,0,1,.34,1.27,3,3,0,0,1-2.59,1.56,2.74,2.74,0,0,1-2.49-1.56.81.81,0,0,1,.29-1.27.82.82,0,0,1,1.27.29,1,1,0,0,0,2,0C18.4,41.35,18.8,41.26,19.36,41.58Zm9-22.21a.81.81,0,0,1-.05,1.26.83.83,0,0,1-1.32,0,2.57,2.57,0,0,0-1.17-.69.79.79,0,0,1-.78-.88V17.85H21V19c0,.53-.23.82-.69.88a2.45,2.45,0,0,0-1.31.83,2.16,2.16,0,0,0-.54,1.42V32.7q0,.87-.93.87t-.93-.87V22.15a3.84,3.84,0,0,1,2.54-3.81v-1a2.15,2.15,0,0,1-.68-1.56V14.53A2,2,0,0,1,19,13.12a1.88,1.88,0,0,1,1.46-.64h5.08a1.89,1.89,0,0,1,1.46.64,2,2,0,0,1,.59,1.41V15.8a2.15,2.15,0,0,1-.68,1.56v1A4.33,4.33,0,0,1,28.39,19.37ZM32,47H17v1.17H32ZM23.41,39a2.76,2.76,0,0,1-2.49,1.47A3,3,0,0,1,18.33,39a.81.81,0,0,1,.34-1.27c.56-.32,1-.22,1.22.3a1,1,0,0,0,2,0,.92.92,0,1,1,1.56,1Zm-3.52-16.5c0-.59.31-.88.93-.88s.93.29.93.88V24.2c0,.59-.31.88-.93.88s-.93-.29-.93-.88Zm5.86-8a.17.17,0,0,0-.19-.19H20.48c-.13,0-.2.06-.2.19V15.8a.32.32,0,0,0,.1.2h5.28a.3.3,0,0,0,.09-.2ZM23.41,41.87a1.14,1.14,0,0,0,1,.69,1.12,1.12,0,0,0,1-.69c.26-.52.67-.61,1.22-.29a.81.81,0,0,1,.35,1.27,3,3,0,0,1-2.59,1.56,2.72,2.72,0,0,1-2.49-1.56.92.92,0,0,1,1.56-1Zm6.84-18.65a.82.82,0,0,1,.19,1.32.78.78,0,0,1-1.27.15,2,2,0,0,0-1.07-.39c-.59,0-1.21.49-1.86,1.46A8.48,8.48,0,0,0,24.87,29,7.38,7.38,0,0,0,25,32.6a.82.82,0,0,1-.58,1.17.93.93,0,0,1-.3.1.84.84,0,0,1-.88-.59A9.14,9.14,0,0,1,23,28.69a10.56,10.56,0,0,1,1.66-4q1.56-2.25,3.42-2.25h.09A3.28,3.28,0,0,1,30.25,23.22Zm-2.4,17.29A3,3,0,0,1,25.27,39a.87.87,0,0,1,.39-1.27.82.82,0,0,1,1.27.3,1.09,1.09,0,0,0,.92.68,1.11,1.11,0,0,0,.93-.68.92.92,0,1,1,1.56,1A2.74,2.74,0,0,1,27.85,40.51Zm8.89-7.62c-.62,0-.93-.29-.93-.88a7.23,7.23,0,0,0-.44-3.12,2.66,2.66,0,0,0-1.32-1.66,2,2,0,0,0-1.66.48A6.7,6.7,0,0,0,30,30a8.21,8.21,0,0,0-1.36,3.13.77.77,0,0,1-.88.68h-.2a.79.79,0,0,1-.68-1.07,10.15,10.15,0,0,1,1.66-3.81,9.28,9.28,0,0,1,2.93-2.84,4.28,4.28,0,0,1,3.22-.58A4.12,4.12,0,0,1,37,27.91a9.48,9.48,0,0,1,.69,4.1C37.67,32.6,37.36,32.89,36.74,32.89Zm-7.37,8.69a.82.82,0,0,1,1.27.29,1.12,1.12,0,0,0,1,.69,1.14,1.14,0,0,0,1-.69c.26-.52.67-.61,1.22-.29a.81.81,0,0,1,.34,1.27,2.94,2.94,0,0,1-2.59,1.56,2.74,2.74,0,0,1-2.49-1.56A.82.82,0,0,1,29.37,41.58ZM50,15.51a56.2,56.2,0,0,1-5.08,10.74q-1.37,2.34-2.83,4.49a.91.91,0,0,1-.78.39.67.67,0,0,1-.49-.19.81.81,0,0,1-.29-1.27q1.47-2.05,2.83-4.3a58.22,58.22,0,0,0,4.3-8.89l-.78.39h-.1a32.82,32.82,0,0,0-9,7,3.57,3.57,0,0,0-.3.78.93.93,0,0,1-1.76-.59l.39-1V23a38.42,38.42,0,0,0,2.35-11.72V11a60.33,60.33,0,0,0-5.27,7.71c-.53.85-1,1.69-1.47,2.54a.78.78,0,0,1-1.22.44.91.91,0,0,1-.44-1.32q.78-1.26,1.47-2.64a73.29,73.29,0,0,1,6.83-9.57.89.89,0,0,1,.93-.24,1,1,0,0,1,.73.63,2.09,2.09,0,0,1,.1.69q4.1-3.42,6.44-2,2.55,1.45,1.18,7.32a4.28,4.28,0,0,1,1.17-.19.83.83,0,0,1,.88.29A1.05,1.05,0,0,1,50,15.51Zm-15.18,25A2.74,2.74,0,0,1,32.3,39a.92.92,0,1,1,1.56-1,1.13,1.13,0,0,0,1,.68.94.94,0,0,0,.87-.68.87.87,0,0,1,1.32-.3A.81.81,0,0,1,37.37,39,3,3,0,0,1,34.79,40.51ZM45.68,8.77c-1-.59-2.77.36-5.38,2.83a33.33,33.33,0,0,1-1.36,8.6,32.84,32.84,0,0,1,6.64-4.79C46.68,11.64,46.72,9.42,45.68,8.77ZM42,15a.75.75,0,0,1,.49.78,1.51,1.51,0,0,1-.1.49l-.19.19a.77.77,0,0,1-.78.39.92.92,0,0,1-.39-.09A.89.89,0,0,1,40.5,16a1,1,0,0,1,.1-.49l.09-.2A.81.81,0,0,1,42,15Zm.39-3.13a.89.89,0,0,1,.49.79.65.65,0,0,1-.19.48l-.1.2a.89.89,0,0,1-.78.49.66.66,0,0,1-.49-.2.75.75,0,0,1-.49-.78,1,1,0,0,1,.2-.49l.1-.19A.81.81,0,0,1,42.35,11.89Zm2.15,1.27A.89.89,0,0,1,45,14a1,1,0,0,1-.1.48l-.19.2a.75.75,0,0,1-.78.49,1.77,1.77,0,0,1-.49-.1,1,1,0,0,1-.39-.88.81.81,0,0,1,.1-.39l.09-.2C43.56,13,44,12.84,44.5,13.16Zm.3-2.83a.94.94,0,0,1,.39.78,1.15,1.15,0,0,1-.1.49l-.1.2a.88.88,0,0,1-.78.49.68.68,0,0,1-.49-.2.89.89,0,0,1-.49-.78,1.15,1.15,0,0,1,.1-.49l.2-.2C43.79,10.1,44.21,10,44.8,10.33Z"/></g></g></svg>