<svg xmlns="http://www.w3.org/2000/svg" viewBox="0 0 173.33 218.4">
  <defs>
    <style>
      .cls-1{fill: currentColor}
    </style>
  </defs>
  <g id="Ebene_1-2" data-name="Ebene 1">
    <path class="cls-1" d="m88.45,25.59h8.53c.28,1.99,1.56,2.99,3.84,2.99s3.69-1.13,4.26-3.41c1.13,0,2.27-.14,3.41-.43h.85c.28,2.56,1.71,3.84,4.27,3.84s3.84-1.28,3.84-3.84v-1.28c2.84-.28,5.54-.71,8.1-1.28.57,1.43.85,2.99.85,4.69v6.82c0,3.99-1.28,7.68-3.84,11.09v-3.84c0-2.56-1.43-3.84-4.26-3.84h-1.71c-1.14,0-2.13.43-2.99,1.28-1.43,1.71-3.35,2.56-5.76,2.56s-4.2-.85-5.33-2.56c-.85-.85-1.99-1.28-3.41-1.28h-1.71c-2.56,0-3.84,1.28-3.84,3.84v5.12c-3.41-3.69-5.12-7.82-5.12-12.37v-8.1Zm33.27-11.09c-4.55,1.14-9.24,1.85-14.08,2.13-5.69.57-11.24.85-16.64.85,3.69-6.25,9.1-9.38,16.21-9.38,5.97,0,10.8,2.13,14.5,6.4m-9.17,40.31c-1.28,1-2.77,1.49-4.48,1.49-3.13,0-5.26-1.13-6.4-3.41v-5.12c1.99.85,4.12,1.28,6.4,1.28s4.41-.43,6.4-1.28v3.84c0,1.14-.64,2.21-1.92,3.2m-4.48,9.6c6.25,0,10.66-2.56,13.22-7.68,8.81-5.4,13.22-13.08,13.22-23.04v-6.82c0-2.27-.43-4.54-1.28-6.82,3.13-.85,6.11-1.85,8.96-2.99,2.56-1.13,3.34-2.91,2.35-5.33-1-2.41-2.77-3.2-5.33-2.35-2.85,1.14-5.83,2.13-8.96,2.99-5.41-8.24-13.08-12.37-23.03-12.37-7.4,0-13.72,2.63-18.98,7.89-5.26,5.26-7.89,11.59-7.89,18.98v6.82c0,10.81,4.97,18.77,14.93,23.89,2.56,4.55,6.83,6.82,12.8,6.82m-.43,59.72l-10.66-3.84v-10.66h21.33v10.66l-10.66,3.84Zm18.77-18.34c0-2.84-1.43-4.26-4.26-4.26h-29.43c-2.56,0-3.84,1.43-3.84,4.26v17.06c0,1.99.85,3.27,2.56,3.84l14.93,5.55c.28.29.71.43,1.28.43s.99-.14,1.28-.43l14.93-5.55c1.71-.57,2.56-1.85,2.56-3.84v-17.06Zm-14.5,104.51v-11.09h25.59c1.42,0,2.7.49,3.84,1.49,1.13.99,1.71,2.35,1.71,4.05v5.55h-31.14Zm-8.53-52.04v32.85h-17.92c-2.28-11.94-3.27-24.74-2.99-38.39,0-.28-.15-.57-.43-.85-2.56-12.22-3.84-25.73-3.84-40.52v-11.09c0-1.71.64-3.2,1.92-4.48,1.28-1.28,2.77-1.92,4.48-1.92h46.07c1.71,0,3.2.64,4.48,1.92s1.92,2.77,1.92,4.48v11.94c0,8.25-.43,16.21-1.28,23.89-.85-.57-1.71-1.13-2.56-1.71-2.28-1.42-4.12-.99-5.54,1.28-1.43,2.28-1,4.12,1.28,5.55,1.71,1.14,3.55,2.28,5.54,3.41-.29,2.85-.71,5.55-1.28,8.11-.29.29-.43.57-.43.85,0,13.37-1,25.88-2.99,37.54h-17.92v-32.85c0-2.84-1.43-4.26-4.26-4.26s-4.27,1.43-4.27,4.26m-31.14,52.04v-5.55c0-1.71.57-3.06,1.71-4.05,1.13-1,2.41-1.49,3.84-1.49h25.59v11.09h-31.14Zm-8.1,0h-25.17l-7.25-35.4c5.97,1.99,13.36,2.99,22.18,2.99,3.98,0,7.82-.28,11.52-.85,2.56-.28,3.69-1.77,3.41-4.48-.29-2.7-1.85-3.77-4.69-3.2-3.13.29-6.55.43-10.24.43-12.8,0-20.76-1.71-23.89-5.12,3.13-3.41,11.09-5.12,23.89-5.12h7.25c2.84.29,4.41-.92,4.69-3.63.28-2.7-1-4.05-3.84-4.05-2.56-.28-5.26-.43-8.1-.43-3.41,0-6.69.15-9.81.43l-2.99-15.78c3.69-3.13,6.97-6.82,9.81-11.09,3.41-4.26,6.11-8.81,8.1-13.65l.85.43c.57.29,1.28.43,2.13.43,1.42,0,2.56-.57,3.41-1.71,1.42-2.27.99-4.12-1.28-5.54l-6.83-4.27,5.55-20.05c.85-3.13,2.77-5.9,5.76-8.32,2.99-2.41,6.04-3.63,9.17-3.63h5.97v17.06c-3.7.29-6.9,1.78-9.6,4.48-2.71,2.71-4.05,6.05-4.05,10.02v11.09c0,15.08,1.42,29.01,4.27,41.8-.29,13.65.71,26.31,2.99,37.96-3.7,0-6.83,1.35-9.39,4.05-2.56,2.7-3.84,5.9-3.84,9.6v5.55Zm73.8-141.62c3.12,0,6.19,1.21,9.17,3.63,2.99,2.42,4.9,5.19,5.76,8.32l5.12,20.05-6.4,4.27c-2.28,1.43-2.56,3.27-.85,5.54.85,1.14,1.99,1.71,3.41,1.71.85,0,1.56-.14,2.13-.43l1.28,8.96c-3.41,5.69-7.96,10.38-13.65,14.08.85-7.11,1.28-14.64,1.28-22.61v-11.94c0-3.98-1.35-7.32-4.05-10.02-2.71-2.7-5.9-4.19-9.6-4.48v-17.06h6.4Zm13.22,141.62v-5.55c0-3.7-1.28-6.9-3.84-9.6-2.56-2.71-5.69-4.05-9.38-4.05,1.99-11.66,2.99-24.03,2.99-37.11.57-1.71.99-3.55,1.28-5.55,1.13.29,1.99.43,2.56.43,1.71,0,2.91-.78,3.62-2.35.71-1.56.49-3.05-.64-4.48,7.39-4.55,13.22-10.66,17.49-18.34.28-.85.43-1.71.43-2.56l-1.71-14.5,1.28-.85c1.42-1.13,1.99-2.7,1.71-4.69l-5.97-22.61c-1.43-4.83-4.34-9.02-8.75-12.58-4.41-3.55-9.17-5.33-14.29-5.33h-10.66c-2.56,0-3.84,1.43-3.84,4.27v20.9h-31.57v-11.09c5.12,3.7,10.38,5.54,15.78,5.54,2.84,0,4.26-1.35,4.26-4.05s-1.43-4.05-4.26-4.05c-5.69,0-11.24-3.27-16.64-9.81-.85-1.13-1.85-1.71-2.99-1.71h-10.24c-5.12,0-9.88,1.78-14.29,5.33-4.41,3.56-7.32,7.75-8.74,12.58l-5.97,22.61c-.29,1.99.28,3.56,1.71,4.69l1.71.85c-1.99,4.55-4.55,9.1-7.68,13.65-1.71,2.28-3.56,4.41-5.54,6.4l-8.11-43.08,4.69-.85c2.84-.57,5.04-2.06,6.61-4.48,1.56-2.41,2.06-5.05,1.49-7.89l-5.97-30.29c-.29-2.56-1.78-3.63-4.48-3.2-2.71.43-3.77,2.07-3.2,4.91l5.97,30.29c0,.57-.21,1.14-.64,1.71-.43.57-.93.85-1.49.85l-4.69.85-6.4-32.42c-.29-2.84-1.78-3.98-4.48-3.41-2.71.57-3.77,2.13-3.2,4.69l5.97,32.85-4.26.85c-1.71.29-2.71-.28-2.99-1.71l-5.97-30.71c-.29-2.56-1.78-3.55-4.48-2.99-2.71.57-3.77,2.13-3.2,4.69l5.97,30.29c.28,2.56,1.42,4.63,3.41,6.18,1.99,1.57,4.27,2.35,6.82,2.35.57,0,1.13-.14,1.71-.43l4.69-.85,9.38,48.2c-.29.29-.57.43-.85.43-1.99,1.71-2.28,3.7-.85,5.97.85.85,1.99,1.28,3.41,1.28l2.13,12.37c-9.67,2.56-14.5,6.4-14.5,11.52,0,.57.14,1.14.43,1.71l8.53,43.94H8.26c-2.56,0-3.84,1.35-3.84,4.05s1.28,4.05,3.84,4.05h161.24c2.56,0,3.84-1.35,3.84-4.05s-1.28-4.05-3.84-4.05h-18.34Z"/>
  </g>
</svg>